{"title":"Floating.Skyscrapers.2013.DVDRip.XviD.HORiZON-ArtSubs","uid":9904629,"size":733954048,"categoryP":"video","categoryS":"movies","magnet":"?xt=urn:btih:0cb3af088ecd888699084072efb8583091ed8c98&amp;dn=Floating.Skyscrapers.2013.DVDRip.XviD.HORiZON-ArtSubs&amp;tr=udp%3A%2F%2Ftracker.openbittorrent.com%3A80&amp;tr=udp%3A%2F%2Fopen.demonii.com%3A1337&amp;tr=udp%3A%2F%2Ftracker.coppersurfer.tk%3A6969&amp;tr=udp%3A%2F%2Fexodus.desync.com%3A6969","seeders":26,"leechers":3,"uploader":"lletaif","files":1,"time":1396819509,"description":"Title:\nFloating Skyscrapers Aka Plynace Wiezowce\n\n\nCountry:\nPoland/2013\n\n\nLanguage:\nPolish\n\n\nSubtitle:\nEnglish HC\n\n\nIMDB: &lt;a href=&quot;\nhttp://www.imdb.com/title/tt2776106/?ref_=fn_al_tt_1&quot; rel=&quot;nofollow&quot; target=&quot;_NEW&quot;&gt;\nhttp://www.imdb.com/title/tt2776106/?ref_=fn_al_tt_1&lt;/a&gt;\n\n\nPlot:\nThe story of a young man discovering his homosexuality, while his girlfriend tries to cling onto him.\n\n\nMedia Info:\n\nGeneral\nComplete name                            : Floating.Skyscrapers.2013.DVDRip.XviD.HORiZON-ArtSubs.avi\nFormat                                   : AVI\nFormat/Info                              : Audio Video Interleave\nFile size                                : 700 MiB\nDuration                                 : 1h 29mn\nOverall bit rate                         : 1 096 Kbps\n\nVideo\nID                                       : 0\nFormat                                   : MPEG-4 Visual\nFormat profile                           : Advanced Simple@L5\nFormat settings, BVOP                    : 1\nFormat settings, QPel                    : No\nFormat settings, GMC                     : No warppoints\nFormat settings, Matrix                  : Default (H.263)\nMuxing mode                              : Packed bitstream\nCodec ID                                 : XVID\nCodec ID/Hint                            : XviD\nDuration                                 : 1h 29mn\nBit rate                                 : 959 Kbps\nWidth                                    : 640 pixels\nHeight                                   : 272 pixels\nDisplay aspect ratio                     : 2.35:1\nFrame rate                               : 25.000 fps\nColor space                              : YUV\nChroma subsampling                       : 4:2:0\nBit depth                                : 8 bits\nScan type                                : Progressive\nCompression mode                         : Lossy\nBits/(Pixel*Frame)                       : 0.220\nStream size                              : 612 MiB (87%)\nWriting library                          : XviD 64\n\nAudio\nID                                       : 1\nFormat                                   : MPEG Audio\nFormat version                           : Version 1\nFormat profile                           : Layer 3\nMode                                     : Joint stereo\nMode extension                           : MS Stereo\nCodec ID                                 : 55\nCodec ID/Hint                            : MP3\nDuration                                 : 1h 29mn\nBit rate mode                            : Constant\nBit rate                                 : 128 Kbps\nChannel count                            : 2 channels\nSampling rate                            : 48.0 KHz\nCompression mode                         : Lossy\nStream size                              : 81.7 MiB (12%)\nAlignment                                : Aligned on interleaves\nInterleave, duration                     : 40 ms (1.00 video frame)\nInterleave, preload duration             : 504 ms\nWriting library                          : LAME3.99r\nEncoding settings                        : -m j -V 4 -q 2 -lowpass 17 -b 128\n\n","torrent":{"xt":"urn:btih:0cb3af088ecd888699084072efb8583091ed8c98","amp;dn":"Floating.Skyscrapers.2013.DVDRip.XviD.HORiZON-ArtSubs","amp;tr":["udp%3A%2F%2Ftracker.openbittorrent.com%3A80","udp%3A%2F%2Fopen.demonii.com%3A1337","udp%3A%2F%2Ftracker.coppersurfer.tk%3A6969","udp%3A%2F%2Fexodus.desync.com%3A6969"],"infoHash":"0cb3af088ecd888699084072efb8583091ed8c98","infoHashBuffer":{"type":"Buffer","data":[12,179,175,8,142,205,136,134,153,8,64,114,239,184,88,48,145,237,140,152]},"announce":[],"urlList":[]}}